{"title":"Naruto Shippuuden - 353-354 (2Episodes) [Hi10 720p] [ENG-SUBBED]","uid":9713086,"size":222283788,"categoryP":"video","categoryS":"tv_shows","magnet":"?xt=urn:btih:6a470bbd1c74f5bd7dfa8cf78aea2517cb9dd3a9&amp;dn=Naruto+Shippuuden+-+353-354+%282Episodes%29+%5BHi10+720p%5D+%5BENG-SUBBED%5D&amp;tr=udp%3A%2F%2Ftracker.openbittorrent.com%3A80&amp;tr=udp%3A%2F%2Fopen.demonii.com%3A1337&amp;tr=udp%3A%2F%2Ftracker.coppersurfer.tk%3A6969&amp;tr=udp%3A%2F%2Fexodus.desync.com%3A6969","seeders":1,"leechers":0,"uploader":"canc232","files":1,"time":1394130521,"description":"Naruto Shippuuden - 353-354 (2Episodes) [Hi10 720p] [ENG-SUBBED] [GWC]\n\n\nSTORYLINE :\nNaruto Uzumaki, is a loud, hyperactive, adolescent ninja who constantly searches for approval and recognition, as well as to become Hokage, who is acknowledged as the leader and strongest of all ninja in the village.\n\n\n\nTHUMBNAIL IMAGE : &lt;a href=&quot;\nhttp://img577.imageshack.us/img577/2945/keqe.jpg&quot; rel=&quot;nofollow&quot; target=&quot;_NEW&quot;&gt;\nhttp://img577.imageshack.us/img577/2945/keqe.jpg&lt;/a&gt;\n\n\nMEDIA INFO :\nGeneral \nFormat : MPEG-4 \nFormat profile : Base Media \nFile size : 212 MiB \nDuration : 41mn 21s \nOverall bit rate mode : Variable \nOverall bit rate : 717 Kbps \n\nVideo \nFormat : AVC \nFormat profile : High &lt;a class=&quot;__cf_email__&quot; href=&quot;/cdn-cgi/l/email-protection&quot; data-cfemail=&quot;aa9b9aeae69e849b&quot;&gt;[email&amp;#160;protected]&lt;/a&gt;&lt;script cf-hash='f9e31' type=&quot;text/javascript&quot;&gt;\n/* &lt;![CDATA[ */!function(){try{var t=&quot;currentScript&quot;in document?document.currentScript:function(){for(var t=document.getElementsByTagName(&quot;script&quot;),e=t.length;e--;)if(t[e].getAttribute(&quot;cf-hash&quot;))return t[e]}();if(t&amp;&amp;t.previousSibling){var e,r,n,i,c=t.previousSibling,a=c.getAttribute(&quot;data-cfemail&quot;);if(a){for(e=&quot;&quot;,r=parseInt(a.substr(0,2),16),n=2;a.length-n;n+=2)i=parseInt(a.substr(n,2),16)^r,e+=String.fromCharCode(i);e=document.createTextNode(e),c.parentNode.replaceChild(e,c)}}}catch(u){}}();/* ]]&gt; */&lt;/script&gt; \nFormat settings, CABAC : Yes \nFormat settings, ReFrames : 10 frames \nDuration : 41mn 21s \nBit rate : 597 Kbps \nMaximum bit rate : 4 385 Kbps \nWidth : 1 280 pixels \nHeight : 720 pixels \nDisplay aspect ratio : 16:9 \nFrame rate mode : Variable \nFrame rate : 23.976 fps \nStream size : 177 MiB (83%) \nTitle : Naruto Shippuuden - 353-354 (2Episodes) [Hi10 720p] [ENG-SUBBED] [GWC] \nWriting library : x264 core\n\nAudio \nFormat : AAC \nFormat profile : LC \nDuration : 41mn 21s \nBit rate mode : Variable \nChannel(s) : 2 channels \nSampling rate : 44.1 KHz \nStream size : 34.0 MiB (16%) \nLanguage : Japanese \n\nText \nFormat : Timed Text \nDuration : 41mn 20s \nTitle : [GWC] \nLanguage : English ","torrent":{"xt":"urn:btih:6a470bbd1c74f5bd7dfa8cf78aea2517cb9dd3a9","amp;dn":"Naruto+Shippuuden+-+353-354+%282Episodes%29+%5BHi10+720p%5D+%5BENG-SUBBED%5D","amp;tr":["udp%3A%2F%2Ftracker.openbittorrent.com%3A80","udp%3A%2F%2Fopen.demonii.com%3A1337","udp%3A%2F%2Ftracker.coppersurfer.tk%3A6969","udp%3A%2F%2Fexodus.desync.com%3A6969"],"infoHash":"6a470bbd1c74f5bd7dfa8cf78aea2517cb9dd3a9","infoHashBuffer":{"type":"Buffer","data":[106,71,11,189,28,116,245,189,125,250,140,247,138,234,37,23,203,157,211,169]},"announce":[],"urlList":[]}}